<svg width="10" height="16" viewBox="0 0 10 16" fill="none" xmlns="http://www.w3.org/2000/svg">
<path fill-rule="evenodd" clip-rule="evenodd" d="M1 9C1.55228 9 2 9.44771 2 10V11C2 12.6569 3.34315 14 5 14C6.65685 14 8 12.6569 8 11V10C8 9.44771 8.44772 9 9 9C9.55229 9 10 9.44771 10 10V11C10 13.7614 7.76142 16 5 16C2.23858 16 0 13.7614 0 11V10C0 9.44771 0.447715 9 1 9Z" fill="#1EC568"/>
<path fill-rule="evenodd" clip-rule="evenodd" d="M9 7C8.44771 7 8 6.55229 8 6V5C8 3.34315 6.65685 2 5 2C3.34315 2 2 3.34315 2 5L2 6C2 6.55228 1.55228 7 1 7C0.447715 7 3.91402e-08 6.55228 8.74224e-08 6L1.74846e-07 5C4.16257e-07 2.23858 2.23858 -2.41411e-07 5 0C7.76142 2.41411e-07 10 2.23858 10 5V6C10 6.55229 9.55229 7 9 7Z" fill="#1EC568"/>
<path fill-rule="evenodd" clip-rule="evenodd" d="M5 4.5C5.55228 4.5 6 4.94772 6 5.5V11C6 11.5523 5.55228 12 5 12C4.44772 12 4 11.5523 4 11V5.5C4 4.94772 4.44772 4.5 5 4.5Z" fill="#1EC568"/>
</svg>
