<svg width="88" height="72" viewBox="0 0 88 72" fill="none" xmlns="http://www.w3.org/2000/svg">
<rect width="87.6524" height="72.0002" fill="black"/>
<path d="M66.2623 9.86242C65.1148 8.71145 63.7111 8.13037 62.0958 8.13037C60.4804 8.13037 59.0768 8.71145 57.9293 9.86242C56.7818 11.0133 56.2025 12.4269 56.2025 14.0696V28.3896C56.2025 30.0321 56.7818 31.4514 57.9293 32.6079C59.0768 33.77 60.4749 34.3566 62.0958 34.3566C63.7111 34.3566 65.1093 33.77 66.2623 32.6079C67.0866 31.7754 67.6214 30.8032 67.8498 29.7193L67.8888 29.5461L64.2236 28.4733L64.1734 28.6633C64.0342 29.1829 63.8281 29.5461 63.4772 29.8757C63.0817 30.2501 62.625 30.4345 62.0902 30.4345C61.5332 30.4345 61.0709 30.2501 60.6866 29.8813C60.3077 29.5126 60.1184 29.0712 60.1184 28.5293V13.969C60.1184 13.4494 60.3022 13.008 60.6866 12.628C61.0709 12.2481 61.5332 12.0582 62.0902 12.0582C62.625 12.0582 63.0817 12.2425 63.4772 12.628C63.8448 12.9856 64.0342 13.5611 64.062 13.9802C64.0732 14.131 64.2125 15.6898 64.2125 15.6898L64.2291 15.9022L68.0559 15.2094L67.989 14.0584C67.8331 12.1084 67.3652 10.9743 66.2623 9.86242Z" fill="white"/>
<path d="M26.2131 23.7963H28.82C29.7557 23.7963 30.8586 23.6678 31.9114 22.7403C32.8249 21.9358 33.265 20.7122 33.265 19.0081V12.6052C33.265 11.2419 32.6356 9.97915 31.5828 9.22493C30.5189 8.46501 28.937 8.35328 28.0847 8.35328H22.0578V34.2388H26.2131V23.7963ZM29.5163 13.5885V18.6226C29.5163 19.2428 29.3993 19.7121 29.1876 19.9524C28.937 20.2317 28.4746 20.2708 28.0959 20.2708H26.2131V11.9458H27.9343C28.3521 11.9458 28.8924 12.0353 29.143 12.2923C29.3993 12.5437 29.5163 12.9572 29.5163 13.5885Z" fill="white"/>
<path d="M69.666 63.6333H79.1798V60.0407H73.7489V52.4701H78.4223V48.939H73.7489V41.3516H79.1798V37.7646H69.666V63.6333Z" fill="white"/>
<path d="M58.4868 63.6333H68.0006V60.0407H62.5642V52.4701H67.2431V48.939H62.5642V41.3516H68.0006V37.7646H58.4868V63.6333Z" fill="white"/>
<path d="M79.1798 11.9434V8.35642H69.666V34.2252H79.1798V30.6326H73.7489V23.062H78.4223V19.5308H73.7489V11.9434H79.1798Z" fill="white"/>
<path d="M47.402 63.6333H51.4849V52.4701H56.1583V48.939H51.4849V41.3516H56.9158V37.7646H47.402V63.6333Z" fill="white"/>
<path d="M36.3453 63.6333H40.4282V52.4701H45.1016V48.939H40.4282V41.3516H45.8591V37.7646H36.3453V63.6333Z" fill="white"/>
<path d="M28.2069 37.5888C26.5915 37.5888 25.1878 38.1699 24.0403 39.3209C22.8929 40.4718 22.3136 41.8854 22.3136 43.528V57.9709C22.3136 59.6136 22.8929 61.0327 24.0403 62.1948C25.1878 63.357 26.5859 63.9436 28.2069 63.9436C29.8222 63.9436 31.2259 63.357 32.3734 62.1948C33.5208 61.0383 34.1001 59.6136 34.1001 57.9709V43.5336C34.1001 41.891 33.5208 40.4774 32.3734 39.3264C31.2259 38.1755 29.8222 37.5888 28.2069 37.5888ZM26.1514 43.4331C26.1514 42.9134 26.3464 42.4777 26.7419 42.0977C27.143 41.7122 27.622 41.5278 28.2069 41.5278C28.7694 41.5278 29.2429 41.7122 29.6551 42.1032C30.0617 42.4832 30.2623 42.919 30.2623 43.4386V58.1106C30.2623 58.647 30.0617 59.0883 29.6551 59.4571C29.2429 59.8315 28.7694 60.0159 28.2069 60.0159C27.622 60.0159 27.143 59.8315 26.7419 59.4571C26.3464 59.0883 26.1514 58.647 26.1514 58.1106V43.4331Z" fill="white"/>
<path d="M12.0703 34.2289H15.4012C16.4763 34.2289 17.412 33.8434 18.1696 33.0891C18.9327 32.3348 19.317 31.4074 19.317 30.3403C19.317 29.2731 18.9327 28.3456 18.1696 27.5913C17.412 26.8371 16.4763 26.4516 15.4012 26.4516H12.0703C10.9952 26.4516 10.065 26.8371 9.31301 27.5913C8.56109 28.3456 8.17676 29.2731 8.17676 30.3403C8.17676 31.4074 8.56109 32.3348 9.31301 33.0891C10.0594 33.8434 10.9896 34.2289 12.0703 34.2289ZM11.1679 29.5525C11.3963 29.329 11.658 29.2172 11.97 29.2172H15.5684C15.8914 29.2172 16.1588 29.329 16.376 29.5525C16.5988 29.7759 16.7046 30.0385 16.7046 30.3403C16.7046 30.6587 16.5988 30.9213 16.376 31.1392C16.1532 31.3571 15.8914 31.4633 15.5627 31.4633H11.9644C11.6525 31.4633 11.3907 31.3571 11.1623 31.1336C10.9339 30.9157 10.8281 30.6587 10.8281 30.3403C10.8281 30.033 10.9395 29.7759 11.1679 29.5525Z" fill="white"/>
<path d="M19.0279 8.35642H16.5882V12.3793H14.9672V8.35642H12.5164V12.3793H10.9456V8.35642H8.50586V15.1505H19.0279V8.35642Z" fill="white"/>
<path d="M19.0168 21.9219H13.9869L19.0279 19.6479V16.9157H8.50586V19.7149H13.3909L8.50586 21.9889V24.6763H19.0168V21.9219Z" fill="white"/>
<path d="M53.4344 8.35328L49.396 8.35891V34.2388L53.4344 34.2332V8.35328Z" fill="white"/>
<path d="M44.7279 22.7379C45.6414 21.9334 46.0815 20.7097 46.0815 19.0056V12.6083C46.0815 11.245 45.452 9.98229 44.3992 9.22808C43.3354 8.46823 41.7535 8.35642 40.9012 8.35642H34.8631V34.242H39.0352V23.7995H40.3831L42.8174 34.242H46.8724L44.2712 23.0955C44.4438 22.9782 44.5887 22.8608 44.7279 22.7379ZM39.0352 11.9434H40.7563C41.1742 11.9434 41.7144 12.0328 41.9651 12.2899C42.2213 12.5469 42.3383 12.9603 42.3383 13.5916V18.6258C42.3383 19.2459 42.2213 19.7152 42.0097 19.9555C41.759 20.2348 41.2911 20.274 40.9179 20.274H39.0352V11.9434Z" fill="white"/>
<path d="M13.7302 42.0771C14.12 41.6971 14.5768 41.5072 15.1338 41.5072C15.6686 41.5072 16.1254 41.6916 16.5208 42.0771C16.8884 42.4346 17.0779 43.0102 17.1057 43.4236C17.1168 43.5744 17.2561 45.1333 17.2561 45.1333L17.2727 45.3456L21.0995 44.6527L21.0327 43.5018C20.8767 41.5519 20.4088 40.4177 19.3059 39.3114C18.1584 38.1604 16.7547 37.5794 15.1394 37.5794C13.5241 37.5794 12.1204 38.1604 10.9729 39.3114C9.82545 40.4624 9.24615 41.8759 9.24615 43.5186V57.8386C9.24615 59.4812 9.82545 60.9003 10.9729 62.0569C12.1204 63.219 13.5241 63.8056 15.1394 63.8056C16.7547 63.8056 18.1529 63.219 19.3059 62.0569C20.1302 61.2244 20.665 60.2522 20.8934 59.1683L20.9324 58.9951L17.2672 57.9279L17.2171 58.1179C17.0779 58.6375 16.8661 59.0007 16.5208 59.3303C16.1254 59.7047 15.6741 59.8891 15.1338 59.8891C14.5768 59.8891 14.1145 59.7047 13.7302 59.3359C13.3514 58.9672 13.162 58.5258 13.162 57.9838V43.4124C13.1675 42.8983 13.357 42.4514 13.7302 42.0771Z" fill="white"/>
</svg>
